mtllib pooltable.mtl
v 0.05145800088835101 0.6858 0.0406891376913803
v 0.06037151351216918 0.6858 0.0
v 0.06666769105928995 0.6605474111398515 0.0
v 0.06508750000000002 0.6349999999999999 0.03629024999999998
v 0.05708424098121858 0.6632343835080319 0.0406891376913803
v 1.2394244901506317 0.6858 0.0
v 1.2534723777505876 0.6858 0.0406891376913803
v 1.2245897057464148 0.6632343835080319 0.0406891376913803
v 1.1869326308801103 0.6349999999999999 0.03629024999999998
v 1.2071026503478726 0.6605474111398515 0.0
v -1.2534723777505876 0.6858 0.0406891376913803
v -1.2394244901506317 0.6858 0.0
v -1.2071026503478726 0.6605474111398515 0.0
v -1.1869326308801103 0.6349999999999999 0.03629024999999998
v -1.2245897057464148 0.6632343835080319 0.0406891376913803
v -0.06037151351216918 0.6858 0.0
v -0.05145800088835101 0.6858 0.0406891376913803
v -0.05708424098121858 0.6632343835080319 0.0406891376913803
v -0.06508750000000002 0.6349999999999999 0.03629024999999998
v -0.06666769105928995 0.6605474111398515 0.0
v 1.2534723777505876 -0.6858 0.0406891376913803
v 1.2394244901506317 -0.6858 0.0
v 1.2071026503478726 -0.6605474111398515 0.0
v 1.1869326308801103 -0.6349999999999999 0.03629024999999998
v 1.2245897057464148 -0.6632343835080319 0.0406891376913803
v 0.06037151351216918 -0.6858 0.0
v 0.05145800088835101 -0.6858 0.0406891376913803
v 0.05708424098121858 -0.6632343835080319 0.0406891376913803
v 0.06508750000000002 -0.6349999999999999 0.03629024999999998
v 0.06666769105928995 -0.6605474111398515 0.0
v -0.05145800088835101 -0.6858 0.0406891376913803
v -0.06037151351216918 -0.6858 0.0
v -0.06666769105928995 -0.6605474111398515 0.0
v -0.06508750000000002 -0.6349999999999999 0.03629024999999998
v -0.05708424098121858 -0.6632343835080319 0.0406891376913803
v -1.2394244901506317 -0.6858 0.0
v -1.2534723777505876 -0.6858 0.0406891376913803
v -1.2245897057464148 -0.6632343835080319 0.0406891376913803
v -1.1869326308801103 -0.6349999999999999 0.03629024999999998
v -1.2071026503478726 -0.6605474111398515 0.0
v -1.3208 -0.6184723777505877 0.0406891376913803
v -1.3208 -0.6044244901506317 0.0
v -1.2955474111398513 -0.572102650347872 0.0
v -1.2699999999999998 -0.5519326308801099 0.03629024999999994
v -1.298234383508032 -0.5895897057464151 0.0406891376913803
v -1.3208 0.6044244901506317 0.0
v -1.3208 0.6184723777505877 0.0406891376913803
v -1.298234383508032 0.5895897057464151 0.0406891376913803
v -1.2699999999999998 0.5519326308801099 0.03629024999999994
v -1.2955474111398513 0.572102650347872 0.0
v 1.3208 0.6184723777505877 0.0406891376913803
v 1.3208 0.6044244901506317 0.0
v 1.2955474111398513 0.572102650347872 0.0
v 1.2699999999999998 0.5519326308801099 0.03629024999999994
v 1.298234383508032 0.5895897057464151 0.0406891376913803
v 1.3208 -0.6044244901506317 0.0
v 1.3208 -0.6184723777505877 0.0406891376913803
v 1.298234383508032 -0.5895897057464151 0.0406891376913803
v 1.2699999999999998 -0.5519326308801099 0.03629024999999994
v 1.2955474111398513 -0.572102650347872 0.0
vn -0.9490924366591313 -0.23663532174578916 -0.2079116908177595
vn 0.6022077949540278 -0.7707908279928537 -0.20791169081775746
vn 0.0 0.0 1.0
vn 1.775681666607491e-19 -0.15394182647000187 0.9880799127920169
vn 4.2876850469669694e-20 -0.8177021855075741 -0.5756414993866728
vn -0.0 -0.0 -1.0
vn -0.0 1.0 -0.0
vn -0.6022077949540278 -0.7707908279928536 -0.20791169081775737
vn 0.9490924366591312 -0.2366353217457895 -0.20791169081775945
vn 0.6022077949540278 0.7707908279928536 -0.20791169081775737
vn -0.9490924366591312 0.2366353217457895 -0.20791169081775945
vn 1.4344452870313403e-19 0.15394182647000187 0.9880799127920169
vn -3.8329845060084956e-19 0.8177021855075741 -0.5756414993866728
vn 0.0 -1.0 0.0
vn 0.9490924366591313 0.23663532174578916 -0.2079116908177595
vn -0.6022077949540278 0.7707908279928537 -0.20791169081775746
vn 0.7707908279928547 -0.6022077949540255 -0.2079116908177599
vn 0.7707908279928546 0.6022077949540255 -0.2079116908177597
vn 0.15394182647000154 2.511248806533803e-20 0.988079912792017
vn 0.8177021855075748 -4.329067305331743e-19 -0.5756414993866716
vn -1.0 -0.0 -0.0
vn -0.7707908279928547 0.6022077949540255 -0.2079116908177599
vn -0.7707908279928546 -0.6022077949540255 -0.2079116908177597
vn -0.15394182647000154 -2.511248806533803e-20 0.988079912792017
vn -0.8177021855075748 4.329067305331743e-19 -0.5756414993866716
vn 1.0 0.0 0.0
vt 0.5569497764545592 0.6123398596164509
vt 0.5426008257650103 0.6086425751196443
vt 0.5448684371121678 0.6009618128339594
vt 0.559960213584311 0.5964889505956505
vt 0.5589761052518233 0.6054763599149111
vt 0.9959455021590597 0.6002967167855583
vt 0.9898634641674521 0.6123398596164508
vt 0.9794611725734292 0.6054763599149109
vt 0.9671032212295512 0.5955866829246501
vt 0.9843045707924947 0.5926159544998735
vt 0.5618585336505472 0.5967850616274786
vt 0.9658987198585053 0.5967850616274785
vt 0.5624276502534233 0.5832863220855418
vt 0.9731630901331964 0.5832863220855418
vt 0.560160038906266 0.575605559799857
vt 0.9848040214997602 0.5756055597998567
vt 0.9848040214997623 0.6247157627742529
vt 0.560160038906266 0.6247157627742531
vt 0.006082037991607999 0.9180937105427384
vt 0.0 0.906050567711846
vt 0.011640931366565245 0.8983698054261613
vt 0.02884228092950854 0.9013405338509378
vt 0.016484329585630602 0.9112302108411986
vt 0.4533446763940464 0.91439642604593
vt 0.43899572570449774 0.9180937105427367
vt 0.4369693969072336 0.9112302108411969
vt 0.4359852885747458 0.9022428015219365
vt 0.45107706504688894 0.9067156637602454
vt 0.030046782300553968 0.9025389125537662
vt 0.4340869685085084 0.9025389125537651
vt 0.022782412025862595 0.8890401730118295
vt 0.43351785190563163 0.88904017301183
vt 0.01114148065929751 0.8813594107261445
vt 0.4357854632527911 0.8813594107261444
vt 0.43578546325279044 0.9304696137005404
vt 0.01114148065929759 0.9304696137005404
vt 0.4472626384024384 0.7955149079351541
vt 0.4533446763940464 0.8075580507660464
vt 0.44170374502748116 0.8152388130517311
vt 0.4245023954645379 0.8122680846269545
vt 0.4368603468084158 0.8023784076366938
vt 0.0 0.7992121924319624
vt 0.014348950689548634 0.7955149079351557
vt 0.016375279486812788 0.8023784076366954
vt 0.01735938781930063 0.8113658169559559
vt 0.002267611347157463 0.8068929547176471
vt 0.42329789409349244 0.8110697059241262
vt 0.019257707885537923 0.8110697059241273
vt 0.4305622643681838 0.8245684454660629
vt 0.019826824488414694 0.8245684454660623
vt 0.44220319573474887 0.8322492077517478
vt 0.017559213141255255 0.8322492077517479
vt 0.01755921314125594 0.783139004777352
vt 0.4422031957347488 0.783139004777352
vt 0.4389957257045007 0.8446251109095502
vt 0.4533446763940495 0.8483223954063568
vt 0.45107706504689216 0.8560031576920416
vt 0.4359852885747488 0.8604760199303505
vt 0.4369693969072366 0.8514886106110899
vt 0.0 0.8566682537404428
vt 0.006082037991607839 0.8446251109095503
vt 0.016484329585630602 0.8514886106110902
vt 0.0288422809295087 0.8613782876013509
vt 0.011640931366565245 0.8643490160261275
vt 0.43408696850851264 0.8601799088985225
vt 0.030046782300554607 0.8601799088985226
vt 0.4335178519056365 0.8736786484404592
vt 0.022782412025863553 0.8736786484404593
vt 0.01114148065929759 0.832249207751748
vt 0.4357854632527939 0.8322492077517479
vt 0.006082037991607839 0.7707631016195501
vt 0.0 0.7587199587886576
vt 0.011640931366565325 0.7510391965029728
vt 0.028842280929508378 0.7540099249277494
vt 0.01648432958563036 0.7638996019180103
vt 0.45765817814112025 0.7587199587886576
vt 0.4515761401495123 0.7707631016195499
vt 0.4411738485554899 0.7638996019180102
vt 0.4288158972116119 0.7540099249277491
vt 0.44601724677455507 0.7510391965029727
vt 0.030046782300554128 0.7552083036305776
vt 0.4276113958405661 0.7552083036305776
vt 0.022782412025862755 0.7417095640886407
vt 0.4348757661152592 0.7417095640886416
vt 0.011141480659297428 0.734028801802956
vt 0.44651669748182515 0.7340288018029569
vt 0.4465166974818225 0.783139004777352
vt 0.01114148065929747 0.783139004777352
vt 0.9092343182906327 0.7464047049607581
vt 0.9153163562822405 0.7584478477916504
vt 0.9036754249156752 0.7661286100773353
vt 0.8864740753527321 0.7631578816525586
vt 0.8988320266966102 0.7532682046622978
vt 0.4576581781411203 0.7584478477916504
vt 0.46374021613272826 0.7464047049607583
vt 0.4741425077267506 0.7532682046622979
vt 0.4865004590706286 0.7631578816525588
vt 0.4692991095076855 0.7661286100773355
vt 0.8852695739816864 0.7619595029497305
vt 0.48770496044167444 0.7619595029497305
vt 0.8925339442563778 0.7754582424916672
vt 0.48044059016698143 0.7754582424916665
vt 0.9041748756229432 0.783139004777352
vt 0.46879965880041546 0.7831390047773512
vt 0.468799658800418 0.7340288018029562
vt 0.904174875622943 0.734028801802956
usemtl material_cushions
f 1/1/1 2/2/1 3/3/1 
f 1/1/1 3/3/1 4/4/1 
f 4/4/1 5/5/1 1/1/1 
f 6/6/2 7/7/2 8/8/2 
f 6/6/2 8/8/2 9/9/2 
f 9/9/2 10/10/2 6/6/2 
f 7/7/3 1/1/3 5/5/3 
f 5/5/3 8/8/3 7/7/3 
f 8/8/4 5/5/4 4/11/4 
f 4/11/4 9/12/4 8/8/4 
f 9/12/5 4/11/5 3/13/5 
f 3/13/5 10/14/5 9/12/5 
f 10/14/6 3/13/6 2/15/6 
f 2/15/6 6/16/6 10/14/6 
f 6/17/7 2/18/7 1/1/7 
f 1/1/7 7/7/7 6/17/7 
f 11/19/8 12/20/8 13/21/8 
f 11/19/8 13/21/8 14/22/8 
f 14/22/8 15/23/8 11/19/8 
f 16/24/9 17/25/9 18/26/9 
f 16/24/9 18/26/9 19/27/9 
f 19/27/9 20/28/9 16/24/9 
f 17/25/3 11/19/3 15/23/3 
f 15/23/3 18/26/3 17/25/3 
f 18/26/4 15/23/4 14/29/4 
f 14/29/4 19/30/4 18/26/4 
f 19/30/5 14/29/5 13/31/5 
f 13/31/5 20/32/5 19/30/5 
f 20/32/6 13/31/6 12/33/6 
f 12/33/6 16/34/6 20/32/6 
f 16/35/7 12/36/7 11/19/7 
f 11/19/7 17/25/7 16/35/7 
f 21/37/10 22/38/10 23/39/10 
f 21/37/10 23/39/10 24/40/10 
f 24/40/10 25/41/10 21/37/10 
f 26/42/11 27/43/11 28/44/11 
f 26/42/11 28/44/11 29/45/11 
f 29/45/11 30/46/11 26/42/11 
f 27/43/3 21/37/3 25/41/3 
f 25/41/3 28/44/3 27/43/3 
f 28/44/12 25/41/12 24/47/12 
f 24/47/12 29/48/12 28/44/12 
f 29/48/13 24/47/13 23/49/13 
f 23/49/13 30/50/13 29/48/13 
f 30/50/6 23/49/6 22/51/6 
f 22/51/6 26/52/6 30/50/6 
f 26/53/14 22/54/14 21/37/14 
f 21/37/14 27/43/14 26/53/14 
f 31/55/15 32/56/15 33/57/15 
f 31/55/15 33/57/15 34/58/15 
f 34/58/15 35/59/15 31/55/15 
f 36/60/16 37/61/16 38/62/16 
f 36/60/16 38/62/16 39/63/16 
f 39/63/16 40/64/16 36/60/16 
f 37/61/3 31/55/3 35/59/3 
f 35/59/3 38/62/3 37/61/3 
f 38/62/12 35/59/12 34/65/12 
f 34/65/12 39/66/12 38/62/12 
f 39/66/13 34/65/13 33/67/13 
f 33/67/13 40/68/13 39/66/13 
f 40/68/6 33/67/6 32/34/6 
f 32/34/6 36/33/6 40/68/6 
f 36/69/14 32/70/14 31/55/14 
f 31/55/14 37/61/14 36/69/14 
f 41/71/17 42/72/17 43/73/17 
f 41/71/17 43/73/17 44/74/17 
f 44/74/17 45/75/17 41/71/17 
f 46/76/18 47/77/18 48/78/18 
f 46/76/18 48/78/18 49/79/18 
f 49/79/18 50/80/18 46/76/18 
f 47/77/3 41/71/3 45/75/3 
f 45/75/3 48/78/3 47/77/3 
f 48/78/19 45/75/19 44/81/19 
f 44/81/19 49/82/19 48/78/19 
f 49/82/20 44/81/20 43/83/20 
f 43/83/20 50/84/20 49/82/20 
f 50/84/6 43/83/6 42/85/6 
f 42/85/6 46/86/6 50/84/6 
f 46/87/21 42/88/21 41/71/21 
f 41/71/21 47/77/21 46/87/21 
f 51/89/22 52/90/22 53/91/22 
f 51/89/22 53/91/22 54/92/22 
f 54/92/22 55/93/22 51/89/22 
f 56/94/23 57/95/23 58/96/23 
f 56/94/23 58/96/23 59/97/23 
f 59/97/23 60/98/23 56/94/23 
f 57/95/3 51/89/3 55/93/3 
f 55/93/3 58/96/3 57/95/3 
f 58/96/24 55/93/24 54/99/24 
f 54/99/24 59/100/24 58/96/24 
f 59/100/25 54/99/25 53/101/25 
f 53/101/25 60/102/25 59/100/25 
f 60/102/6 53/101/6 52/103/6 
f 52/103/6 56/104/6 60/102/6 
f 56/105/26 52/106/26 51/89/26 
f 51/89/26 57/95/26 56/105/26 
