v 0.05145800088835101 0.6858 0.0406891376913803
v 0.06037151351216918 0.6858 0.0
v 0.06666769105928995 0.6605474111398515 0.0
v 0.06508750000000002 0.6349999999999999 0.03629024999999998
v 0.05708424098121858 0.6632343835080319 0.0406891376913803
v 1.2394244901506317 0.6858 0.0
v 1.2534723777505876 0.6858 0.0406891376913803
v 1.2245897057464148 0.6632343835080319 0.0406891376913803
v 1.1869326308801103 0.6349999999999999 0.03629024999999998
v 1.2071026503478726 0.6605474111398515 0.0
v -1.2534723777505876 0.6858 0.0406891376913803
v -1.2394244901506317 0.6858 0.0
v -1.2071026503478726 0.6605474111398515 0.0
v -1.1869326308801103 0.6349999999999999 0.03629024999999998
v -1.2245897057464148 0.6632343835080319 0.0406891376913803
v -0.06037151351216918 0.6858 0.0
v -0.05145800088835101 0.6858 0.0406891376913803
v -0.05708424098121858 0.6632343835080319 0.0406891376913803
v -0.06508750000000002 0.6349999999999999 0.03629024999999998
v -0.06666769105928995 0.6605474111398515 0.0
v 1.2534723777505876 -0.6858 0.0406891376913803
v 1.2394244901506317 -0.6858 0.0
v 1.2071026503478726 -0.6605474111398515 0.0
v 1.1869326308801103 -0.6349999999999999 0.03629024999999998
v 1.2245897057464148 -0.6632343835080319 0.0406891376913803
v 0.06037151351216918 -0.6858 0.0
v 0.05145800088835101 -0.6858 0.0406891376913803
v 0.05708424098121858 -0.6632343835080319 0.0406891376913803
v 0.06508750000000002 -0.6349999999999999 0.03629024999999998
v 0.06666769105928995 -0.6605474111398515 0.0
v -0.05145800088835101 -0.6858 0.0406891376913803
v -0.06037151351216918 -0.6858 0.0
v -0.06666769105928995 -0.6605474111398515 0.0
v -0.06508750000000002 -0.6349999999999999 0.03629024999999998
v -0.05708424098121858 -0.6632343835080319 0.0406891376913803
v -1.2394244901506317 -0.6858 0.0
v -1.2534723777505876 -0.6858 0.0406891376913803
v -1.2245897057464148 -0.6632343835080319 0.0406891376913803
v -1.1869326308801103 -0.6349999999999999 0.03629024999999998
v -1.2071026503478726 -0.6605474111398515 0.0
v -1.3208 -0.6184723777505877 0.0406891376913803
v -1.3208 -0.6044244901506317 0.0
v -1.2955474111398513 -0.572102650347872 0.0
v -1.2699999999999998 -0.5519326308801099 0.03629024999999994
v -1.298234383508032 -0.5895897057464151 0.0406891376913803
v -1.3208 0.6044244901506317 0.0
v -1.3208 0.6184723777505877 0.0406891376913803
v -1.298234383508032 0.5895897057464151 0.0406891376913803
v -1.2699999999999998 0.5519326308801099 0.03629024999999994
v -1.2955474111398513 0.572102650347872 0.0
v 1.3208 0.6184723777505877 0.0406891376913803
v 1.3208 0.6044244901506317 0.0
v 1.2955474111398513 0.572102650347872 0.0
v 1.2699999999999998 0.5519326308801099 0.03629024999999994
v 1.298234383508032 0.5895897057464151 0.0406891376913803
v 1.3208 -0.6044244901506317 0.0
v 1.3208 -0.6184723777505877 0.0406891376913803
v 1.298234383508032 -0.5895897057464151 0.0406891376913803
v 1.2699999999999998 -0.5519326308801099 0.03629024999999994
v 1.2955474111398513 -0.572102650347872 0.0
vn -0.9490924366591313 -0.23663532174578916 -0.2079116908177595
vn 0.6022077949540278 -0.7707908279928537 -0.20791169081775746
vn 0.0 0.0 1.0
vn 1.775681666607491e-19 -0.15394182647000187 0.9880799127920169
vn 4.2876850469669694e-20 -0.8177021855075741 -0.5756414993866728
vn -0.0 -0.0 -1.0
vn -0.0 1.0 -0.0
vn -0.6022077949540278 -0.7707908279928536 -0.20791169081775737
vn 0.9490924366591312 -0.2366353217457895 -0.20791169081775945
vn 0.6022077949540278 0.7707908279928536 -0.20791169081775737
vn -0.9490924366591312 0.2366353217457895 -0.20791169081775945
vn 1.4344452870313403e-19 0.15394182647000187 0.9880799127920169
vn -3.8329845060084956e-19 0.8177021855075741 -0.5756414993866728
vn 0.0 -1.0 0.0
vn 0.9490924366591313 0.23663532174578916 -0.2079116908177595
vn -0.6022077949540278 0.7707908279928537 -0.20791169081775746
vn 0.7707908279928547 -0.6022077949540255 -0.2079116908177599
vn 0.7707908279928546 0.6022077949540255 -0.2079116908177597
vn 0.15394182647000154 2.511248806533803e-20 0.988079912792017
vn 0.8177021855075748 -4.329067305331743e-19 -0.5756414993866716
vn -1.0 -0.0 -0.0
vn -0.7707908279928547 0.6022077949540255 -0.2079116908177599
vn -0.7707908279928546 -0.6022077949540255 -0.2079116908177597
vn -0.15394182647000154 -2.511248806533803e-20 0.988079912792017
vn -0.8177021855075748 4.329067305331743e-19 -0.5756414993866716
vn 1.0 0.0 0.0
vt 0.05145800088835095 0.6858
vt 0.011617160759582218 0.6736441745982855
vt 0.017913338306702997 0.648391585738137
vt 0.05981668487849881 0.6336858381924003
vt 0.057084240981218476 0.6632343835080319
vt 1.2703595710041873 0.6462049021202771
vt 1.2534723777505903 0.6857999999999994
vt 1.224589705746417 0.6632343835080313
vt 1.190277011078844 0.6307193885497596
vt 1.2380377312014277 0.6209523132601288
vt 0.06508750000000002 0.6346593835080317
vt 1.1869326308801111 0.6346593835080313
vt 0.06666769105928992 0.5902786167164236
vt 1.2071026503478723 0.5902786167164232
vt 0.06037151351216914 0.5650260278562751
vt 1.2394244901506282 0.5650260278562741
vt 1.239424490150634 0.7264891376913801
vt 0.06037151351216921 0.7264891376913803
vt -1.2534723777505876 0.6858000000000001
vt -1.270359571004185 0.6462049021202779
vt -1.2380377312014255 0.6209523132601296
vt -1.1902770110788423 0.6307193885497603
vt -1.2245897057464148 0.663234383508032
vt -0.011617160759588796 0.6736441745982799
vt -0.05145800088835689 0.6857999999999945
vt -0.05708424098122458 0.6632343835080267
vt -0.05981668487850514 0.6336858381923955
vt -0.017913338306709686 0.6483915857381317
vt -1.1869326308801107 0.6346593835080321
vt -0.06508750000000943 0.6346593835080285
vt -1.2071026503478728 0.5902786167164242
vt -0.06666769105930105 0.5902786167164262
vt -1.239424490150632 0.5650260278562756
vt -0.06037151351217467 0.5650260278562749
vt -0.060371513512176574 0.7264891376913799
vt -1.2394244901506317 0.72648913769138
vt 1.2534723777505876 -0.6858000000000001
vt 1.270359571004185 -0.6462049021202779
vt 1.2380377312014255 -0.6209523132601296
vt 1.1902770110788423 -0.6307193885497603
vt 1.2245897057464148 -0.663234383508032
vt 0.011617160759588796 -0.6736441745982799
vt 0.05145800088835689 -0.6857999999999945
vt 0.05708424098122458 -0.6632343835080267
vt 0.05981668487850514 -0.6336858381923955
vt 0.017913338306709686 -0.6483915857381317
vt 1.1869326308801107 -0.6346593835080321
vt 0.06508750000000943 -0.6346593835080285
vt 1.2071026503478728 -0.5902786167164242
vt 0.06666769105930105 -0.5902786167164262
vt 1.239424490150632 -0.5650260278562756
vt 0.06037151351217467 -0.5650260278562749
vt 0.060371513512176574 -0.7264891376913799
vt 1.2394244901506317 -0.72648913769138
vt -0.05145800088835095 -0.6858
vt -0.011617160759582218 -0.6736441745982855
vt -0.017913338306702997 -0.648391585738137
vt -0.05981668487849881 -0.6336858381924003
vt -0.057084240981218476 -0.6632343835080319
vt -1.2703595710041873 -0.6462049021202771
vt -1.2534723777505903 -0.6857999999999994
vt -1.224589705746417 -0.6632343835080313
vt -1.190277011078844 -0.6307193885497596
vt -1.2380377312014277 -0.6209523132601288
vt -0.06508750000000002 -0.6346593835080317
vt -1.1869326308801151 -0.6346593835080301
vt -0.06666769105928988 -0.5902786167164232
vt -1.2071026503478781 -0.5902786167164217
vt -0.060371513512169024 -0.5650260278562744
vt -1.2394244901506386 -0.5650260278562723
vt -1.239424490150634 -0.7264891376913801
vt -0.06037151351216921 -0.7264891376913803
vt -1.3208000000000002 -0.6184723777505877
vt -1.281204902120278 -0.6353595710041847
vt -1.2559523132601296 -0.6030377312014249
vt -1.2657193885497604 -0.5552770110788424
vt -1.2982343835080323 -0.5895897057464151
vt -1.281204902120278 0.6353595710041847
vt -1.3208 0.6184723777505875
vt -1.298234383508032 0.5895897057464151
vt -1.2657193885497597 0.5552770110788424
vt -1.2559523132601293 0.6030377312014253
vt -1.2696593835080316 -0.5519326308801099
vt -1.2696593835080316 0.5519326308801099
vt -1.2252786167164236 -0.572102650347872
vt -1.2252786167164258 0.5721026503478767
vt -1.200026027856275 -0.6044244901506318
vt -1.2000260278562782 0.6044244901506383
vt -1.3614891376913798 0.604424490150631
vt -1.3614891376913802 -0.6044244901506317
vt 1.3208000000000002 0.6184723777505877
vt 1.281204902120278 0.6353595710041847
vt 1.2559523132601296 0.6030377312014249
vt 1.2657193885497604 0.5552770110788424
vt 1.2982343835080323 0.5895897057464151
vt 1.281204902120278 -0.6353595710041847
vt 1.3208 -0.6184723777505875
vt 1.298234383508032 -0.5895897057464151
vt 1.2657193885497597 -0.5552770110788424
vt 1.2559523132601293 -0.6030377312014253
vt 1.2696593835080316 0.5519326308801099
vt 1.2696593835080316 -0.5519326308801099
vt 1.2252786167164236 0.572102650347872
vt 1.2252786167164236 -0.5721026503478718
vt 1.200026027856275 0.6044244901506317
vt 1.200026027856275 -0.6044244901506317
vt 1.3614891376913798 -0.604424490150631
vt 1.3614891376913802 0.6044244901506317
f 1/1/1 2/2/1 3/3/1 
f 1/1/1 3/3/1 4/4/1 
f 4/4/1 5/5/1 1/1/1 
f 6/6/2 7/7/2 8/8/2 
f 6/6/2 8/8/2 9/9/2 
f 9/9/2 10/10/2 6/6/2 
f 7/7/3 1/1/3 5/5/3 
f 5/5/3 8/8/3 7/7/3 
f 8/8/4 5/5/4 4/11/4 
f 4/11/4 9/12/4 8/8/4 
f 9/12/5 4/11/5 3/13/5 
f 3/13/5 10/14/5 9/12/5 
f 10/14/6 3/13/6 2/15/6 
f 2/15/6 6/16/6 10/14/6 
f 6/17/7 2/18/7 1/1/7 
f 1/1/7 7/7/7 6/17/7 
f 11/19/8 12/20/8 13/21/8 
f 11/19/8 13/21/8 14/22/8 
f 14/22/8 15/23/8 11/19/8 
f 16/24/9 17/25/9 18/26/9 
f 16/24/9 18/26/9 19/27/9 
f 19/27/9 20/28/9 16/24/9 
f 17/25/3 11/19/3 15/23/3 
f 15/23/3 18/26/3 17/25/3 
f 18/26/4 15/23/4 14/29/4 
f 14/29/4 19/30/4 18/26/4 
f 19/30/5 14/29/5 13/31/5 
f 13/31/5 20/32/5 19/30/5 
f 20/32/6 13/31/6 12/33/6 
f 12/33/6 16/34/6 20/32/6 
f 16/35/7 12/36/7 11/19/7 
f 11/19/7 17/25/7 16/35/7 
f 21/37/10 22/38/10 23/39/10 
f 21/37/10 23/39/10 24/40/10 
f 24/40/10 25/41/10 21/37/10 
f 26/42/11 27/43/11 28/44/11 
f 26/42/11 28/44/11 29/45/11 
f 29/45/11 30/46/11 26/42/11 
f 27/43/3 21/37/3 25/41/3 
f 25/41/3 28/44/3 27/43/3 
f 28/44/12 25/41/12 24/47/12 
f 24/47/12 29/48/12 28/44/12 
f 29/48/13 24/47/13 23/49/13 
f 23/49/13 30/50/13 29/48/13 
f 30/50/6 23/49/6 22/51/6 
f 22/51/6 26/52/6 30/50/6 
f 26/53/14 22/54/14 21/37/14 
f 21/37/14 27/43/14 26/53/14 
f 31/55/15 32/56/15 33/57/15 
f 31/55/15 33/57/15 34/58/15 
f 34/58/15 35/59/15 31/55/15 
f 36/60/16 37/61/16 38/62/16 
f 36/60/16 38/62/16 39/63/16 
f 39/63/16 40/64/16 36/60/16 
f 37/61/3 31/55/3 35/59/3 
f 35/59/3 38/62/3 37/61/3 
f 38/62/12 35/59/12 34/65/12 
f 34/65/12 39/66/12 38/62/12 
f 39/66/13 34/65/13 33/67/13 
f 33/67/13 40/68/13 39/66/13 
f 40/68/6 33/67/6 32/69/6 
f 32/69/6 36/70/6 40/68/6 
f 36/71/14 32/72/14 31/55/14 
f 31/55/14 37/61/14 36/71/14 
f 41/73/17 42/74/17 43/75/17 
f 41/73/17 43/75/17 44/76/17 
f 44/76/17 45/77/17 41/73/17 
f 46/78/18 47/79/18 48/80/18 
f 46/78/18 48/80/18 49/81/18 
f 49/81/18 50/82/18 46/78/18 
f 47/79/3 41/73/3 45/77/3 
f 45/77/3 48/80/3 47/79/3 
f 48/80/19 45/77/19 44/83/19 
f 44/83/19 49/84/19 48/80/19 
f 49/84/20 44/83/20 43/85/20 
f 43/85/20 50/86/20 49/84/20 
f 50/86/6 43/85/6 42/87/6 
f 42/87/6 46/88/6 50/86/6 
f 46/89/21 42/90/21 41/73/21 
f 41/73/21 47/79/21 46/89/21 
f 51/91/22 52/92/22 53/93/22 
f 51/91/22 53/93/22 54/94/22 
f 54/94/22 55/95/22 51/91/22 
f 56/96/23 57/97/23 58/98/23 
f 56/96/23 58/98/23 59/99/23 
f 59/99/23 60/100/23 56/96/23 
f 57/97/3 51/91/3 55/95/3 
f 55/95/3 58/98/3 57/97/3 
f 58/98/24 55/95/24 54/101/24 
f 54/101/24 59/102/24 58/98/24 
f 59/102/25 54/101/25 53/103/25 
f 53/103/25 60/104/25 59/102/25 
f 60/104/6 53/103/6 52/105/6 
f 52/105/6 56/106/6 60/104/6 
f 56/107/26 52/108/26 51/91/26 
f 51/91/26 57/97/26 56/107/26 
