mtllib pooltable.mtl
v -1.3371533032256304 0.7021533032256305 0.0406891376913803
v -1.3793038418160375 0.7443038418160373 0.0406891376913803
v -1.3987177374284274 0.7215730905617161 0.0406891376913803
v -1.4143367428578841 0.6960851902003835 0.0406891376913803
v -1.4257762663542268 0.6684677374284274 0.0406891376913803
v -1.432754628883374 0.6394007655901639 0.0406891376913803
v -1.4351 0.6095999999999999 0.0406891376913803
v -1.4350999999999998 0.5397500000000001 0.0406891376913803
v -1.3208 0.53975 0.0406891376913803
v -1.3208 0.5978441583329567 0.0406891376913803
v -1.341882675365205 0.6248287522508942 0.0406891376913803
v -1.3470550747779928 0.6326764187939337 0.0406891376913803
v -1.350902917966646 0.6412515974306546 0.0406891376913803
v -1.3533267318801103 0.6503326057430088 0.0406891376913803
v -1.3542638569573429 0.6596846847870377 0.0406891376913803
v -1.3536900669796332 0.6690660679962253 0.0406891376913803
v -1.3516201953580507 0.6782342312433708 0.0406891376913803
v -1.348107751665464 0.6869521624866505 0.0406891376913803
v -1.3432435383264074 0.694994488919238 0.0406891376913803
v -1.329994488919238 0.7082435383264073 0.0406891376913803
v -1.3219521624866506 0.7131077516654639 0.0406891376913803
v -1.313234231243371 0.7166201953580507 0.0406891376913803
v -1.3040660679962253 0.7186900669796332 0.0406891376913803
v -1.2946846847870377 0.7192638569573429 0.0406891376913803
v -1.2853326057430088 0.7183267318801103 0.0406891376913803
v -1.2762515974306545 0.7159029179666461 0.0406891376913803
v -1.2598287522508942 0.7068826753652049 0.0406891376913803
v -1.2328441583329568 0.6858 0.0406891376913803
v -1.17475 0.6858 0.0406891376913803
v -1.2676764187939336 0.7120550747779928 0.0406891376913803
v -1.17475 0.8000999999999999 0.0406891376913803
v -1.2446 0.8001 0.0406891376913803
v -1.274400765590164 0.7977546288833738 0.0406891376913803
v -1.3034677374284274 0.7907762663542268 0.0406891376913803
v -1.3310851902003835 0.7793367428578841 0.0406891376913803
v -1.3565730905617162 0.7637177374284275 0.0406891376913803
v -0.09525 0.8000999999999999 0.0406891376913803
v -0.09525 0.6858 0.0406891376913803
v -0.06454679398109471 0.6858 0.0406891376913803
v -0.05816061380600255 0.7114135696843842 0.0406891376913803
v -0.05540059084204595 0.7197972668686957 0.0406891376913803
v -0.051439341072911475 0.7276847636519809 0.0406891376913803
v -0.04636275454656368 0.734905038887753 0.0406891376913803
v -0.04028090467055233 0.741301538502813 0.0406891376913803
v -0.033325661538410566 0.7467355699908149 0.0406891376913803
v -0.025647832648034576 0.7510893096212832 0.0406891376913803
v -0.017413893008598597 0.7542683571600793 0.0406891376913803
v -0.008802375535668617 0.7562037827084337 0.0406891376913803
v -3.6703351156318704e-18 0.7568536212798221 0.0406891376913803
v 0.0 0.8000999999999999 0.0406891376913803
v 0.09525 0.6858 0.0406891376913803
v 0.09525 0.8000999999999999 0.0406891376913803
v 0.008802375535668617 0.7562037827084337 0.0406891376913803
v 0.017413893008598597 0.7542683571600793 0.0406891376913803
v 0.025647832648034576 0.7510893096212832 0.0406891376913803
v 0.033325661538410566 0.7467355699908149 0.0406891376913803
v 0.04028090467055233 0.741301538502813 0.0406891376913803
v 0.04636275454656368 0.734905038887753 0.0406891376913803
v 0.051439341072911475 0.7276847636519809 0.0406891376913803
v 0.05540059084204595 0.7197972668686957 0.0406891376913803
v 0.05816061380600255 0.7114135696843842 0.0406891376913803
v 0.06454679398109471 0.6858 0.0406891376913803
v 1.3371533032256304 0.7021533032256304 0.0406891376913803
v 1.3793038418160373 0.7443038418160374 0.0406891376913803
v 1.3565730905617162 0.7637177374284275 0.0406891376913803
v 1.3310851902003835 0.7793367428578841 0.0406891376913803
v 1.3034677374284274 0.7907762663542268 0.0406891376913803
v 1.274400765590164 0.7977546288833738 0.0406891376913803
v 1.2446 0.8001 0.0406891376913803
v 1.17475 0.8000999999999999 0.0406891376913803
v 1.17475 0.6858 0.0406891376913803
v 1.2328441583329568 0.6858 0.0406891376913803
v 1.2598287522508942 0.7068826753652049 0.0406891376913803
v 1.2676764187939336 0.7120550747779928 0.0406891376913803
v 1.2762515974306545 0.7159029179666461 0.0406891376913803
v 1.2853326057430088 0.7183267318801103 0.0406891376913803
v 1.2946846847870377 0.7192638569573429 0.0406891376913803
v 1.3040660679962253 0.7186900669796332 0.0406891376913803
v 1.313234231243371 0.7166201953580507 0.0406891376913803
v 1.3219521624866506 0.7131077516654639 0.0406891376913803
v 1.329994488919238 0.7082435383264073 0.0406891376913803
v 1.3432435383264074 0.694994488919238 0.0406891376913803
v 1.348107751665464 0.6869521624866505 0.0406891376913803
v 1.3516201953580507 0.6782342312433708 0.0406891376913803
v 1.3536900669796332 0.6690660679962253 0.0406891376913803
v 1.3542638569573429 0.6596846847870377 0.0406891376913803
v 1.3533267318801103 0.6503326057430088 0.0406891376913803
v 1.350902917966646 0.6412515974306546 0.0406891376913803
v 1.341882675365205 0.6248287522508942 0.0406891376913803
v 1.3208 0.5978441583329567 0.0406891376913803
v 1.3208 0.53975 0.0406891376913803
v 1.3470550747779928 0.6326764187939337 0.0406891376913803
v 1.4350999999999998 0.5397500000000001 0.0406891376913803
v 1.4351 0.6095999999999999 0.0406891376913803
v 1.432754628883374 0.6394007655901639 0.0406891376913803
v 1.4257762663542268 0.6684677374284274 0.0406891376913803
v 1.4143367428578841 0.6960851902003835 0.0406891376913803
v 1.3987177374284274 0.7215730905617161 0.0406891376913803
v 1.3371533032256304 -0.7021533032256305 0.0406891376913803
v 1.3793038418160375 -0.7443038418160373 0.0406891376913803
v 1.3987177374284274 -0.7215730905617161 0.0406891376913803
v 1.4143367428578841 -0.6960851902003835 0.0406891376913803
v 1.4257762663542268 -0.6684677374284274 0.0406891376913803
v 1.432754628883374 -0.6394007655901639 0.0406891376913803
v 1.4351 -0.6095999999999999 0.0406891376913803
v 1.4350999999999998 -0.5397500000000001 0.0406891376913803
v 1.3208 -0.53975 0.0406891376913803
v 1.3208 -0.5978441583329567 0.0406891376913803
v 1.341882675365205 -0.6248287522508942 0.0406891376913803
v 1.3470550747779928 -0.6326764187939337 0.0406891376913803
v 1.350902917966646 -0.6412515974306546 0.0406891376913803
v 1.3533267318801103 -0.6503326057430088 0.0406891376913803
v 1.3542638569573429 -0.6596846847870377 0.0406891376913803
v 1.3536900669796332 -0.6690660679962253 0.0406891376913803
v 1.3516201953580507 -0.6782342312433708 0.0406891376913803
v 1.348107751665464 -0.6869521624866505 0.0406891376913803
v 1.3432435383264074 -0.694994488919238 0.0406891376913803
v 1.329994488919238 -0.7082435383264073 0.0406891376913803
v 1.3219521624866506 -0.7131077516654639 0.0406891376913803
v 1.313234231243371 -0.7166201953580507 0.0406891376913803
v 1.3040660679962253 -0.7186900669796332 0.0406891376913803
v 1.2946846847870377 -0.7192638569573429 0.0406891376913803
v 1.2853326057430088 -0.7183267318801103 0.0406891376913803
v 1.2762515974306545 -0.7159029179666461 0.0406891376913803
v 1.2598287522508942 -0.7068826753652049 0.0406891376913803
v 1.2328441583329568 -0.6858 0.0406891376913803
v 1.17475 -0.6858 0.0406891376913803
v 1.2676764187939336 -0.7120550747779928 0.0406891376913803
v 1.17475 -0.8000999999999999 0.0406891376913803
v 1.2446 -0.8001 0.0406891376913803
v 1.274400765590164 -0.7977546288833738 0.0406891376913803
v 1.3034677374284274 -0.7907762663542268 0.0406891376913803
v 1.3310851902003835 -0.7793367428578841 0.0406891376913803
v 1.3565730905617162 -0.7637177374284275 0.0406891376913803
v 0.09525 -0.8000999999999999 0.0406891376913803
v 0.09525 -0.6858 0.0406891376913803
v 0.06454679398109471 -0.6858 0.0406891376913803
v 0.05816061380600255 -0.7114135696843842 0.0406891376913803
v 0.05540059084204595 -0.7197972668686957 0.0406891376913803
v 0.051439341072911475 -0.7276847636519809 0.0406891376913803
v 0.04636275454656368 -0.734905038887753 0.0406891376913803
v 0.04028090467055233 -0.741301538502813 0.0406891376913803
v 0.033325661538410566 -0.7467355699908149 0.0406891376913803
v 0.025647832648034576 -0.7510893096212832 0.0406891376913803
v 0.017413893008598597 -0.7542683571600793 0.0406891376913803
v 0.008802375535668617 -0.7562037827084337 0.0406891376913803
v 3.6703351156318704e-18 -0.7568536212798221 0.0406891376913803
v 0.0 -0.8000999999999999 0.0406891376913803
v -0.09525 -0.6858 0.0406891376913803
v -0.09525 -0.8000999999999999 0.0406891376913803
v -0.008802375535668617 -0.7562037827084337 0.0406891376913803
v -0.017413893008598597 -0.7542683571600793 0.0406891376913803
v -0.025647832648034576 -0.7510893096212832 0.0406891376913803
v -0.033325661538410566 -0.7467355699908149 0.0406891376913803
v -0.04028090467055233 -0.741301538502813 0.0406891376913803
v -0.04636275454656368 -0.734905038887753 0.0406891376913803
v -0.051439341072911475 -0.7276847636519809 0.0406891376913803
v -0.05540059084204595 -0.7197972668686957 0.0406891376913803
v -0.05816061380600255 -0.7114135696843842 0.0406891376913803
v -0.06454679398109471 -0.6858 0.0406891376913803
v -1.3371533032256304 -0.7021533032256304 0.0406891376913803
v -1.3793038418160373 -0.7443038418160374 0.0406891376913803
v -1.3565730905617162 -0.7637177374284275 0.0406891376913803
v -1.3310851902003835 -0.7793367428578841 0.0406891376913803
v -1.3034677374284274 -0.7907762663542268 0.0406891376913803
v -1.274400765590164 -0.7977546288833738 0.0406891376913803
v -1.2446 -0.8001 0.0406891376913803
v -1.17475 -0.8000999999999999 0.0406891376913803
v -1.17475 -0.6858 0.0406891376913803
v -1.2328441583329568 -0.6858 0.0406891376913803
v -1.2598287522508942 -0.7068826753652049 0.0406891376913803
v -1.2676764187939336 -0.7120550747779928 0.0406891376913803
v -1.2762515974306545 -0.7159029179666461 0.0406891376913803
v -1.2853326057430088 -0.7183267318801103 0.0406891376913803
v -1.2946846847870377 -0.7192638569573429 0.0406891376913803
v -1.3040660679962253 -0.7186900669796332 0.0406891376913803
v -1.313234231243371 -0.7166201953580507 0.0406891376913803
v -1.3219521624866506 -0.7131077516654639 0.0406891376913803
v -1.329994488919238 -0.7082435383264073 0.0406891376913803
v -1.3432435383264074 -0.694994488919238 0.0406891376913803
v -1.348107751665464 -0.6869521624866505 0.0406891376913803
v -1.3516201953580507 -0.6782342312433708 0.0406891376913803
v -1.3536900669796332 -0.6690660679962253 0.0406891376913803
v -1.3542638569573429 -0.6596846847870377 0.0406891376913803
v -1.3533267318801103 -0.6503326057430088 0.0406891376913803
v -1.350902917966646 -0.6412515974306546 0.0406891376913803
v -1.341882675365205 -0.6248287522508942 0.0406891376913803
v -1.3208 -0.5978441583329567 0.0406891376913803
v -1.3208 -0.53975 0.0406891376913803
v -1.3470550747779928 -0.6326764187939337 0.0406891376913803
v -1.4350999999999998 -0.5397500000000001 0.0406891376913803
v -1.4351 -0.6095999999999999 0.0406891376913803
v -1.432754628883374 -0.6394007655901639 0.0406891376913803
v -1.4257762663542268 -0.6684677374284274 0.0406891376913803
v -1.4143367428578841 -0.6960851902003835 0.0406891376913803
v -1.3987177374284274 -0.7215730905617161 0.0406891376913803
vn 0.0 0.0 1.0
vt 0.9602093253661882 0.20854235620071485
vt 0.9564141242746897 0.21174745597206357
vt 0.9546661124987466 0.21001902430584543
vt 0.953259789627525 0.20808094079962758
vt 0.9522297839974327 0.20598092750146355
vt 0.9516014577654752 0.20377069370829867
vt 0.9513902824087784 0.20150466271146605
vt 0.9513902824087784 0.19619331375803514
vt 0.9616817638290657 0.1961933137580351
vt 0.9616817638290657 0.20061075609249757
vt 0.9597834964466426 0.20266264721153546
vt 0.9593177777025044 0.20325937871447386
vt 0.9589713209511115 0.20391142976784007
vt 0.9587530826671513 0.2046019437835297
vt 0.958668704667844 0.20531306984284117
vt 0.9587203682627237 0.20602642417197295
vt 0.9589067378632127 0.20672356539269748
vt 0.9592229955097749 0.20738647126220466
vt 0.9596609654240638 0.20799800457760728
vt 0.9608538993331657 0.2090054537501588
vt 0.9615780240318258 0.20937532539550832
vt 0.9623629796522419 0.20964240934870237
vt 0.9631884738054892 0.2097998010519383
vt 0.9640331661151474 0.2098434316718037
vt 0.9648752199009978 0.209772173285287
vt 0.9656928666929844 0.2095878680384353
vt 0.9671715666583016 0.2089019746082154
vt 0.9696012381100989 0.20729886156975436
vt 0.9748319900883218 0.20729886156975436
vt 0.9664649689818335 0.20929528052386093
vt 0.9748319900883218 0.2159901598571868
vt 0.9685427514425906 0.2159901598571868
vt 0.9658595141251671 0.21581181935001859
vt 0.9632423470156526 0.21528118916367864
vt 0.9607556934541631 0.21441133517441524
vt 0.9584607831041125 0.21322367607432394
vt 0.9774746466574677 0.16711454029053177
vt 0.9774746466574677 0.15842324200309932
vt 0.9802391389959351 0.15842324200309932
vt 0.9808141455980223 0.16037088132359728
vt 0.9810626558784521 0.16100837225080955
vt 0.9814193236684798 0.16160813241952954
vt 0.9818764154962522 0.1621571574920707
vt 0.9824240204393838 0.16264354319766944
vt 0.9830502650191565 0.16305674344758656
vt 0.9837415706479705 0.1633877990013417
vt 0.9844829480479271 0.1636295317260102
vt 0.9852583222567909 0.16377670023654267
vt 0.9860508811743738 0.16382611354242735
vt 0.9860508811743738 0.16711454029053177
vt 0.9946271156912798 0.15842324200309932
vt 0.9946271156912798 0.16711454029053177
vt 0.9868434400919568 0.16377670023654267
vt 0.9876188143008205 0.1636295317260102
vt 0.988360191700777 0.1633877990013417
vt 0.9890514973295911 0.16305674344758656
vt 0.9896777419093638 0.16264354319766944
vt 0.9902253468524954 0.1621571574920707
vt 0.9906824386802677 0.16160813241952954
vt 0.9910391064702956 0.16100837225080955
vt 0.9912876167507253 0.16037088132359728
vt 0.9918626233528125 0.15842324200309932
vt 0.9660129471309119 0.18275443488296847
vt 0.9698081482224105 0.1859595346543172
vt 0.9677614893929876 0.18743575475657756
vt 0.965466579042937 0.18862341385666884
vt 0.9629799254814475 0.18949326784593226
vt 0.9603627583719331 0.1900238980322722
vt 0.9576795210545096 0.1902022385394404
vt 0.9513902824087784 0.1902022385394404
vt 0.9513902824087784 0.18151094025200795
vt 0.9566210343870012 0.18151094025200795
vt 0.9590507058387987 0.18311405329046904
vt 0.9597573035152668 0.18350735920611452
vt 0.9605294058041158 0.1837999467206889
vt 0.9613470525961023 0.18398425196754056
vt 0.9621891063819527 0.1840555103540573
vt 0.9630337986916111 0.18401187973419192
vt 0.9638592928448583 0.183854488030956
vt 0.9646442484652744 0.18358740407776192
vt 0.9653683731639345 0.1832175324324124
vt 0.9665613070730363 0.1822100832598609
vt 0.9669992769873254 0.18159854994445826
vt 0.9673155346338874 0.18093564407495108
vt 0.9675019042343764 0.18023850285422652
vt 0.9675535678292563 0.17952514852509477
vt 0.967469189829949 0.1788140224657833
vt 0.9672509515459887 0.17812350845009367
vt 0.9664387760504576 0.17687472589378905
vt 0.9645405086680344 0.17482283477475116
vt 0.9645405086680344 0.1704053924402887
vt 0.9669044947945958 0.17747145739672743
vt 0.9748319900883218 0.1704053924402887
vt 0.9748319900883218 0.17571674139371965
vt 0.9746208147316251 0.1779827723905523
vt 0.9739924884996675 0.18019300618371717
vt 0.9729624828695751 0.1822930194818812
vt 0.9715561599983535 0.18423110298809903
vt 0.9660129471309119 0.22343796351365872
vt 0.9698081482224105 0.22023286374231002
vt 0.9715561599983535 0.22196129540852816
vt 0.9729624828695751 0.22389937891474598
vt 0.9739924884996675 0.22599939221291002
vt 0.9746208147316251 0.22820962600607492
vt 0.9748319900883218 0.23047565700290754
vt 0.9748319900883218 0.23578700595633845
vt 0.9645405086680344 0.23578700595633845
vt 0.9645405086680344 0.23136956362187602
vt 0.9664387760504576 0.22931767250283816
vt 0.9669044947945958 0.22872094099989973
vt 0.9672509515459887 0.2280688899465335
vt 0.967469189829949 0.2273783759308439
vt 0.9675535678292563 0.22666724987153242
vt 0.9675019042343764 0.22595389554240067
vt 0.9673155346338874 0.2252567543216761
vt 0.9669992769873254 0.22459384845216893
vt 0.9665613070730363 0.2239823151367663
vt 0.9653683731639345 0.22297486596421476
vt 0.9646442484652744 0.22260499431886527
vt 0.9638592928448583 0.2223379103656712
vt 0.9630337986916111 0.22218051866243527
vt 0.9621891063819527 0.22213688804256992
vt 0.9613470525961023 0.22220814642908662
vt 0.9605294058041158 0.2223924516759383
vt 0.9590507058387987 0.22307834510615815
vt 0.9566210343870012 0.22468145814461923
vt 0.9513902824087784 0.22468145814461923
vt 0.9597573035152668 0.2226850391905127
vt 0.9513902824087784 0.21599015985718678
vt 0.9576795210545096 0.21599015985718678
vt 0.9603627583719331 0.216168500364355
vt 0.9629799254814475 0.21669913055069495
vt 0.965466579042937 0.21756898453995838
vt 0.9677614893929876 0.21875664364004965
vt 0.9946271156912798 0.18238754287747813
vt 0.9946271156912798 0.19107884116491058
vt 0.9918626233528125 0.19107884116491058
vt 0.9912876167507253 0.18913120184441262
vt 0.9910391064702956 0.18849371091720035
vt 0.9906824386802677 0.18789395074848037
vt 0.9902253468524954 0.1873449256759392
vt 0.9896777419093638 0.18685853997034046
vt 0.9890514973295911 0.18644533972042335
vt 0.988360191700777 0.1861142841666682
vt 0.9876188143008205 0.1858725514419997
vt 0.9868434400919568 0.1857253829314672
vt 0.9860508811743738 0.18567596962558255
vt 0.9860508811743738 0.18238754287747813
vt 0.9774746466574677 0.19107884116491058
vt 0.9774746466574677 0.18238754287747813
vt 0.9852583222567909 0.1857253829314672
vt 0.9844829480479271 0.1858725514419997
vt 0.9837415706479705 0.1861142841666682
vt 0.9830502650191565 0.18644533972042335
vt 0.9824240204393838 0.18685853997034046
vt 0.9818764154962522 0.1873449256759392
vt 0.9814193236684798 0.18789395074848037
vt 0.9810626558784521 0.18849371091720035
vt 0.9808141455980223 0.18913120184441262
vt 0.9802391389959351 0.19107884116491058
vt 0.9836510330457315 0.20364111741450705
vt 0.979855831954233 0.20043601764315833
vt 0.9819024907836559 0.198959797540898
vt 0.9841974011337065 0.1977721384408067
vt 0.9866840546951959 0.19690228445154329
vt 0.9893012218047104 0.19637165426520334
vt 0.9919844591221338 0.1961933137580351
vt 0.998273697767865 0.1961933137580351
vt 0.998273697767865 0.20488461204546754
vt 0.9930429457896423 0.20488461204546754
vt 0.9906132743378447 0.20328149900700648
vt 0.9899066766613767 0.202888193091361
vt 0.9891345743725276 0.20259560557678663
vt 0.9883169275805411 0.20241130032993496
vt 0.9874748737946908 0.20234004194341823
vt 0.9866301814850323 0.2023836725632836
vt 0.9858046873317852 0.20254106426651952
vt 0.9850197317113691 0.20280814821971357
vt 0.9842956070127089 0.2031780198650631
vt 0.9831026731036071 0.20418546903761464
vt 0.9826647031893181 0.20479700235301723
vt 0.982348445542756 0.2054599082225244
vt 0.982162075942267 0.206157049443249
vt 0.9821104123473872 0.20687040377238075
vt 0.9821947903466945 0.2075815298316922
vt 0.9824130286306547 0.20827204384738182
vt 0.9832252041261859 0.2095208264036865
vt 0.985123471508609 0.21157271752272436
vt 0.985123471508609 0.21599015985718678
vt 0.9827594853820476 0.20892409490074806
vt 0.9748319900883218 0.21067881090375584
vt 0.9750431654450183 0.20841277990692325
vt 0.975671491676976 0.20620254611375835
vt 0.9767014973070683 0.20410253281559432
vt 0.9781078201782899 0.2021644493093765
usemtl material_rails
f 1/1/1 2/2/1 3/3/1 
f 1/1/1 3/3/1 4/4/1 
f 1/1/1 4/4/1 5/5/1 
f 1/1/1 5/5/1 6/6/1 
f 1/1/1 6/6/1 7/7/1 
f 7/7/1 8/8/1 9/9/1 
f 7/7/1 9/9/1 10/10/1 
f 7/7/1 10/10/1 11/11/1 
f 7/7/1 11/11/1 12/12/1 
f 7/7/1 12/12/1 13/13/1 
f 7/7/1 13/13/1 14/14/1 
f 7/7/1 14/14/1 15/15/1 
f 7/7/1 15/15/1 16/16/1 
f 7/7/1 16/16/1 17/17/1 
f 7/7/1 17/17/1 18/18/1 
f 7/7/1 18/18/1 19/19/1 
f 7/7/1 19/19/1 1/1/1 
f 2/2/1 1/1/1 20/20/1 
f 2/2/1 20/20/1 21/21/1 
f 2/2/1 21/21/1 22/22/1 
f 2/2/1 22/22/1 23/23/1 
f 2/2/1 23/23/1 24/24/1 
f 2/2/1 24/24/1 25/25/1 
f 2/2/1 25/25/1 26/26/1 
f 27/27/1 28/28/1 29/29/1 
f 30/30/1 27/27/1 29/29/1 
f 26/26/1 30/30/1 29/29/1 
f 26/26/1 29/29/1 31/31/1 
f 2/2/1 26/26/1 31/31/1 
f 2/2/1 31/31/1 32/32/1 
f 2/2/1 32/32/1 33/33/1 
f 2/2/1 33/33/1 34/34/1 
f 2/2/1 34/34/1 35/35/1 
f 35/35/1 36/36/1 2/2/1 
f 37/37/1 38/38/1 39/39/1 
f 37/37/1 39/39/1 40/40/1 
f 37/37/1 40/40/1 41/41/1 
f 37/37/1 41/41/1 42/42/1 
f 37/37/1 42/42/1 43/43/1 
f 37/37/1 43/43/1 44/44/1 
f 37/37/1 44/44/1 45/45/1 
f 37/37/1 45/45/1 46/46/1 
f 37/37/1 46/46/1 47/47/1 
f 37/37/1 47/47/1 48/48/1 
f 37/37/1 48/48/1 49/49/1 
f 49/49/1 50/50/1 37/37/1 
f 51/51/1 52/52/1 50/50/1 
f 50/50/1 49/49/1 53/53/1 
f 50/50/1 53/53/1 54/54/1 
f 50/50/1 54/54/1 55/55/1 
f 50/50/1 55/55/1 56/56/1 
f 50/50/1 56/56/1 57/57/1 
f 51/51/1 50/50/1 57/57/1 
f 51/51/1 57/57/1 58/58/1 
f 51/51/1 58/58/1 59/59/1 
f 51/51/1 59/59/1 60/60/1 
f 51/51/1 60/60/1 61/61/1 
f 61/61/1 62/62/1 51/51/1 
f 63/63/1 64/64/1 65/65/1 
f 63/63/1 65/65/1 66/66/1 
f 63/63/1 66/66/1 67/67/1 
f 63/63/1 67/67/1 68/68/1 
f 63/63/1 68/68/1 69/69/1 
f 69/69/1 70/70/1 71/71/1 
f 69/69/1 71/71/1 72/72/1 
f 69/69/1 72/72/1 73/73/1 
f 69/69/1 73/73/1 74/74/1 
f 69/69/1 74/74/1 75/75/1 
f 69/69/1 75/75/1 76/76/1 
f 69/69/1 76/76/1 77/77/1 
f 69/69/1 77/77/1 78/78/1 
f 69/69/1 78/78/1 79/79/1 
f 69/69/1 79/79/1 80/80/1 
f 69/69/1 80/80/1 81/81/1 
f 69/69/1 81/81/1 63/63/1 
f 64/64/1 63/63/1 82/82/1 
f 64/64/1 82/82/1 83/83/1 
f 64/64/1 83/83/1 84/84/1 
f 64/64/1 84/84/1 85/85/1 
f 64/64/1 85/85/1 86/86/1 
f 64/64/1 86/86/1 87/87/1 
f 64/64/1 87/87/1 88/88/1 
f 89/89/1 90/90/1 91/91/1 
f 92/92/1 89/89/1 91/91/1 
f 88/88/1 92/92/1 91/91/1 
f 88/88/1 91/91/1 93/93/1 
f 64/64/1 88/88/1 93/93/1 
f 64/64/1 93/93/1 94/94/1 
f 64/64/1 94/94/1 95/95/1 
f 64/64/1 95/95/1 96/96/1 
f 64/64/1 96/96/1 97/97/1 
f 97/97/1 98/98/1 64/64/1 
f 99/99/1 100/100/1 101/101/1 
f 99/99/1 101/101/1 102/102/1 
f 99/99/1 102/102/1 103/103/1 
f 99/99/1 103/103/1 104/104/1 
f 99/99/1 104/104/1 105/105/1 
f 105/105/1 106/106/1 107/107/1 
f 105/105/1 107/107/1 108/108/1 
f 105/105/1 108/108/1 109/109/1 
f 105/105/1 109/109/1 110/110/1 
f 105/105/1 110/110/1 111/111/1 
f 105/105/1 111/111/1 112/112/1 
f 105/105/1 112/112/1 113/113/1 
f 105/105/1 113/113/1 114/114/1 
f 105/105/1 114/114/1 115/115/1 
f 105/105/1 115/115/1 116/116/1 
f 105/105/1 116/116/1 117/117/1 
f 105/105/1 117/117/1 99/99/1 
f 100/100/1 99/99/1 118/118/1 
f 100/100/1 118/118/1 119/119/1 
f 100/100/1 119/119/1 120/120/1 
f 100/100/1 120/120/1 121/121/1 
f 100/100/1 121/121/1 122/122/1 
f 100/100/1 122/122/1 123/123/1 
f 100/100/1 123/123/1 124/124/1 
f 125/125/1 126/126/1 127/127/1 
f 128/128/1 125/125/1 127/127/1 
f 124/124/1 128/128/1 127/127/1 
f 124/124/1 127/127/1 129/129/1 
f 100/100/1 124/124/1 129/129/1 
f 100/100/1 129/129/1 130/130/1 
f 100/100/1 130/130/1 131/131/1 
f 100/100/1 131/131/1 132/132/1 
f 100/100/1 132/132/1 133/133/1 
f 133/133/1 134/134/1 100/100/1 
f 135/135/1 136/136/1 137/137/1 
f 135/135/1 137/137/1 138/138/1 
f 135/135/1 138/138/1 139/139/1 
f 135/135/1 139/139/1 140/140/1 
f 135/135/1 140/140/1 141/141/1 
f 135/135/1 141/141/1 142/142/1 
f 135/135/1 142/142/1 143/143/1 
f 135/135/1 143/143/1 144/144/1 
f 135/135/1 144/144/1 145/145/1 
f 135/135/1 145/145/1 146/146/1 
f 135/135/1 146/146/1 147/147/1 
f 147/147/1 148/148/1 135/135/1 
f 149/149/1 150/150/1 148/148/1 
f 148/148/1 147/147/1 151/151/1 
f 148/148/1 151/151/1 152/152/1 
f 148/148/1 152/152/1 153/153/1 
f 148/148/1 153/153/1 154/154/1 
f 148/148/1 154/154/1 155/155/1 
f 149/149/1 148/148/1 155/155/1 
f 149/149/1 155/155/1 156/156/1 
f 149/149/1 156/156/1 157/157/1 
f 149/149/1 157/157/1 158/158/1 
f 149/149/1 158/158/1 159/159/1 
f 159/159/1 160/160/1 149/149/1 
f 161/161/1 162/162/1 163/163/1 
f 161/161/1 163/163/1 164/164/1 
f 161/161/1 164/164/1 165/165/1 
f 161/161/1 165/165/1 166/166/1 
f 161/161/1 166/166/1 167/167/1 
f 167/167/1 168/168/1 169/169/1 
f 167/167/1 169/169/1 170/170/1 
f 167/167/1 170/170/1 171/171/1 
f 167/167/1 171/171/1 172/172/1 
f 167/167/1 172/172/1 173/173/1 
f 167/167/1 173/173/1 174/174/1 
f 167/167/1 174/174/1 175/175/1 
f 167/167/1 175/175/1 176/176/1 
f 167/167/1 176/176/1 177/177/1 
f 167/167/1 177/177/1 178/178/1 
f 167/167/1 178/178/1 179/179/1 
f 167/167/1 179/179/1 161/161/1 
f 162/162/1 161/161/1 180/180/1 
f 162/162/1 180/180/1 181/181/1 
f 162/162/1 181/181/1 182/182/1 
f 162/162/1 182/182/1 183/183/1 
f 162/162/1 183/183/1 184/184/1 
f 162/162/1 184/184/1 185/185/1 
f 162/162/1 185/185/1 186/186/1 
f 187/187/1 188/188/1 189/189/1 
f 190/190/1 187/187/1 189/189/1 
f 186/186/1 190/190/1 189/189/1 
f 186/186/1 189/189/1 191/31/1 
f 162/162/1 186/186/1 191/31/1 
f 162/162/1 191/31/1 192/191/1 
f 162/162/1 192/191/1 193/192/1 
f 162/162/1 193/192/1 194/193/1 
f 162/162/1 194/193/1 195/194/1 
f 195/194/1 196/195/1 162/162/1 
