v -0.09525 0.8000999999999999 0.0406891376913803
v -1.17475 0.8000999999999999 0.0406891376913803
v -1.17475 0.6858 0.0406891376913803
v -0.09525 0.6858 0.0406891376913803
v 0.09525 0.6858 0.0406891376913803
v 1.17475 0.6858 0.0406891376913803
v 1.17475 0.8000999999999999 0.0406891376913803
v 0.09525 0.8000999999999999 0.0406891376913803
v 1.3208 -0.53975 0.0406891376913803
v 1.4351 -0.53975 0.0406891376913803
v 1.4351 0.53975 0.0406891376913803
v 1.3208 0.53975 0.0406891376913803
v 0.09525 -0.8000999999999999 0.0406891376913803
v 1.17475 -0.8000999999999999 0.0406891376913803
v 1.17475 -0.6858 0.0406891376913803
v 0.09525 -0.6858 0.0406891376913803
v -0.09525 -0.6858 0.0406891376913803
v -1.17475 -0.6858 0.0406891376913803
v -1.17475 -0.8000999999999999 0.0406891376913803
v -0.09525 -0.8000999999999999 0.0406891376913803
v -1.3208 0.53975 0.0406891376913803
v -1.4351 0.53975 0.0406891376913803
v -1.4351 -0.53975 0.0406891376913803
v -1.3208 -0.53975 0.0406891376913803
vn 0.0 0.0 1.0
f 1//1 2//1 3//1 4//1 
f 5//1 6//1 7//1 8//1 
f 9//1 10//1 11//1 12//1 
f 13//1 14//1 15//1 16//1 
f 17//1 18//1 19//1 20//1 
f 21//1 22//1 23//1 24//1 
