mtllib pooltable.mtl
v 0.05145800088835101 0.6858 0.0406891376913803
v 0.06037151351216918 0.6858 0.0
v 0.06666769105928995 0.6605474111398515 0.0
v 0.06508750000000002 0.6349999999999999 0.03629024999999998
v 0.05708424098121858 0.6632343835080319 0.0406891376913803
v 1.2394244901506317 0.6858 0.0
v 1.2534723777505876 0.6858 0.0406891376913803
v 1.2245897057464148 0.6632343835080319 0.0406891376913803
v 1.1869326308801103 0.6349999999999999 0.03629024999999998
v 1.2071026503478726 0.6605474111398515 0.0
v -1.2534723777505876 0.6858 0.0406891376913803
v -1.2394244901506317 0.6858 0.0
v -1.2071026503478726 0.6605474111398515 0.0
v -1.1869326308801103 0.6349999999999999 0.03629024999999998
v -1.2245897057464148 0.6632343835080319 0.0406891376913803
v -0.06037151351216918 0.6858 0.0
v -0.05145800088835101 0.6858 0.0406891376913803
v -0.05708424098121858 0.6632343835080319 0.0406891376913803
v -0.06508750000000002 0.6349999999999999 0.03629024999999998
v -0.06666769105928995 0.6605474111398515 0.0
v 1.2534723777505876 -0.6858 0.0406891376913803
v 1.2394244901506317 -0.6858 0.0
v 1.2071026503478726 -0.6605474111398515 0.0
v 1.1869326308801103 -0.6349999999999999 0.03629024999999998
v 1.2245897057464148 -0.6632343835080319 0.0406891376913803
v 0.06037151351216918 -0.6858 0.0
v 0.05145800088835101 -0.6858 0.0406891376913803
v 0.05708424098121858 -0.6632343835080319 0.0406891376913803
v 0.06508750000000002 -0.6349999999999999 0.03629024999999998
v 0.06666769105928995 -0.6605474111398515 0.0
v -0.05145800088835101 -0.6858 0.0406891376913803
v -0.06037151351216918 -0.6858 0.0
v -0.06666769105928995 -0.6605474111398515 0.0
v -0.06508750000000002 -0.6349999999999999 0.03629024999999998
v -0.05708424098121858 -0.6632343835080319 0.0406891376913803
v -1.2394244901506317 -0.6858 0.0
v -1.2534723777505876 -0.6858 0.0406891376913803
v -1.2245897057464148 -0.6632343835080319 0.0406891376913803
v -1.1869326308801103 -0.6349999999999999 0.03629024999999998
v -1.2071026503478726 -0.6605474111398515 0.0
v -1.3208 -0.6184723777505877 0.0406891376913803
v -1.3208 -0.6044244901506317 0.0
v -1.2955474111398513 -0.572102650347872 0.0
v -1.2699999999999998 -0.5519326308801099 0.03629024999999994
v -1.298234383508032 -0.5895897057464151 0.0406891376913803
v -1.3208 0.6044244901506317 0.0
v -1.3208 0.6184723777505877 0.0406891376913803
v -1.298234383508032 0.5895897057464151 0.0406891376913803
v -1.2699999999999998 0.5519326308801099 0.03629024999999994
v -1.2955474111398513 0.572102650347872 0.0
v 1.3208 0.6184723777505877 0.0406891376913803
v 1.3208 0.6044244901506317 0.0
v 1.2955474111398513 0.572102650347872 0.0
v 1.2699999999999998 0.5519326308801099 0.03629024999999994
v 1.298234383508032 0.5895897057464151 0.0406891376913803
v 1.3208 -0.6044244901506317 0.0
v 1.3208 -0.6184723777505877 0.0406891376913803
v 1.298234383508032 -0.5895897057464151 0.0406891376913803
v 1.2699999999999998 -0.5519326308801099 0.03629024999999994
v 1.2955474111398513 -0.572102650347872 0.0
vn -0.9490924366591313 -0.23663532174578916 -0.2079116908177595
vn 0.6022077949540278 -0.7707908279928537 -0.20791169081775746
vn 0.0 0.0 1.0
vn 1.775681666607491e-19 -0.15394182647000187 0.9880799127920169
vn 4.2876850469669694e-20 -0.8177021855075741 -0.5756414993866728
vn -0.0 -0.0 -1.0
vn -0.0 1.0 -0.0
vn -0.6022077949540278 -0.7707908279928536 -0.20791169081775737
vn 0.9490924366591312 -0.2366353217457895 -0.20791169081775945
vn 0.6022077949540278 0.7707908279928536 -0.20791169081775737
vn -0.9490924366591312 0.2366353217457895 -0.20791169081775945
vn 1.4344452870313403e-19 0.15394182647000187 0.9880799127920169
vn -3.8329845060084956e-19 0.8177021855075741 -0.5756414993866728
vn 0.0 -1.0 0.0
vn 0.9490924366591313 0.23663532174578916 -0.2079116908177595
vn -0.6022077949540278 0.7707908279928537 -0.20791169081775746
vn 0.7707908279928547 -0.6022077949540255 -0.2079116908177599
vn 0.7707908279928546 0.6022077949540255 -0.2079116908177597
vn 0.15394182647000154 2.511248806533803e-20 0.988079912792017
vn 0.8177021855075748 -4.329067305331743e-19 -0.5756414993866716
vn -1.0 -0.0 -0.0
vn -0.7707908279928547 0.6022077949540255 -0.2079116908177599
vn -0.7707908279928546 -0.6022077949540255 -0.2079116908177597
vn -0.15394182647000154 -2.511248806533803e-20 0.988079912792017
vn -0.8177021855075748 4.329067305331743e-19 -0.5756414993866716
vn 1.0 0.0 0.0
vt 0.4975193106994604 0.8629490048491478
vt 0.4825259096405479 0.8583714641214161
vt 0.48489536557563834 0.8488620519533469
vt 0.5006649547417029 0.8433242825220046
vt 0.49963664742964603 0.8544514306306347
vt 0.9562315274352793 0.8480386086256724
vt 0.9498763285892662 0.8629490048491475
vt 0.9390068418110773 0.8544514306306344
vt 0.9260938612890768 0.8422072013196013
vt 0.9440677702063055 0.8385291964576032
vt 0.5026485335208809 0.8436908922079225
vt 0.9248352624881739 0.8436908922079218
vt 0.5032432106969912 0.8269783481557603
vt 0.9324258953731435 0.8269783481557599
vt 0.5008737547619008 0.817468935987691
vt 0.9445896526021174 0.8174689359876904
vt 0.9445896526021157 0.8782713855845851
vt 0.5008737547619008 0.8782713855845851
vt 0.009295296127952072 0.7473365336450527
vt 0.0029400972819388646 0.7324261374215776
vt 0.01510385451091255 0.7229167252535084
vt 0.03307776342814129 0.7265947301155063
vt 0.020164782906140908 0.7388389594265395
vt 0.476645715076667 0.742758992917319
vt 0.46165231401775464 0.7473365336450505
vt 0.459534977287569 0.7388389594265375
vt 0.45850666997551204 0.7277118113179077
vt 0.47427625914157645 0.7332495807492497
vt 0.0343363622290451 0.7280784210038275
vt 0.45652309119633283 0.7280784210038261
vt 0.026745729344075972 0.7113658769516656
vt 0.45592841402022183 0.7113658769516664
vt 0.014581972115102456 0.7018564647835964
vt 0.4582978699553144 0.7018564647835961
vt 0.45829786995531374 0.7626589143804898
vt 0.014581972115102539 0.7626589143804899
vt 0.9543835614219226 0.5927543898441413
vt 0.9607387602679358 0.6076647860676162
vt 0.9485750030389621 0.6171741982356855
vt 0.9306010941217334 0.6134961933736874
vt 0.9435140746437337 0.6012519640626542
vt 0.4870331424732077 0.597331930571875
vt 0.5020265435321201 0.5927543898441433
vt 0.5041438802623057 0.6012519640626562
vt 0.5051721875743627 0.6123791121712862
vt 0.48940259840829825 0.6068413427399442
vt 0.9293424953208297 0.6120125024853663
vt 0.5071557663535419 0.6120125024853676
vt 0.9369331282057988 0.6287250465375281
vt 0.5077504435296529 0.6287250465375274
vt 0.9490968854347723 0.6382344587055976
vt 0.5053809875945603 0.6382344587055978
vt 0.505380987594561 0.577432009108704
vt 0.9490968854347722 0.577432009108704
vt 0.46165231401775775 0.8327913167231279
vt 0.4766457150766702 0.8373688574508594
vt 0.4742762591415798 0.8468782696189289
vt 0.4585066699755152 0.8524160390502711
vt 0.45953497728757214 0.8412888909416408
vt 0.0029400972819388646 0.8477017129466032
vt 0.009295296127951904 0.8327913167231281
vt 0.020164782906140908 0.8412888909416412
vt 0.03307776342814146 0.8535331202526745
vt 0.01510385451091255 0.8572111251146725
vt 0.45652309119633727 0.8520494293643531
vt 0.034336362229044265 0.8520494293643537
vt 0.45592841402022694 0.8687619734165152
vt 0.026745729344074803 0.8687619734165158
vt 0.4582978699553174 0.8782713855845845
vt 0.014581972115100783 0.8782713855845854
vt 0.014581972115102539 0.8174689359876907
vt 0.45829786995531735 0.8174689359876904
vt 0.00929529612795182 0.6229120779701606
vt 0.0029400972819388646 0.6080016817466856
vt 0.015103854510912633 0.5984922695786163
vt 0.033077763428141206 0.6021702744406144
vt 0.02016478290614074 0.6144145037516477
vt 0.48115294790933 0.6080016817466856
vt 0.4747977490633169 0.6229120779701606
vt 0.46392826228512823 0.6144145037516476
vt 0.4510152817631278 0.6021702744406141
vt 0.46898919068035644 0.5984922695786162
vt 0.03433636222904527 0.6036539653289352
vt 0.4497566829622236 0.6036539653289352
vt 0.026745729344076142 0.5869414212767734
vt 0.4573473158471945 0.5869414212767742
vt 0.014581972115102372 0.5774320091087041
vt 0.46951107307616896 0.5774320091087052
vt 0.4695110730761662 0.6382344587055977
vt 0.014581972115102414 0.6382344587055979
vt 0.47479774906331706 0.8994777002781986
vt 0.48115294790933 0.9143880965016737
vt 0.46898919068035627 0.923897508669743
vt 0.45101528176312766 0.9202195038077448
vt 0.4639282622851281 0.9079752744967116
vt 0.0029400972819388646 0.9143880965016737
vt 0.009295296127951989 0.8994777002781986
vt 0.020164782906140655 0.9079752744967116
vt 0.03307776342814112 0.9202195038077451
vt 0.015103854510912467 0.923897508669743
vt 0.4497566829622236 0.9187358129194241
vt 0.03433636222904527 0.9187358129194241
vt 0.45734731584719274 0.9354483569715859
vt 0.026745729344074386 0.935448356971585
vt 0.4695110730761665 0.9449577691396552
vt 0.014581972115099949 0.9449577691396539
vt 0.014581972115102664 0.8841553195427615
vt 0.4695110730761665 0.8841553195427613
usemtl material_cushions
f 1/1/1 2/2/1 3/3/1 
f 1/1/1 3/3/1 4/4/1 
f 4/4/1 5/5/1 1/1/1 
f 6/6/2 7/7/2 8/8/2 
f 6/6/2 8/8/2 9/9/2 
f 9/9/2 10/10/2 6/6/2 
f 7/7/3 1/1/3 5/5/3 
f 5/5/3 8/8/3 7/7/3 
f 8/8/4 5/5/4 4/11/4 
f 4/11/4 9/12/4 8/8/4 
f 9/12/5 4/11/5 3/13/5 
f 3/13/5 10/14/5 9/12/5 
f 10/14/6 3/13/6 2/15/6 
f 2/15/6 6/16/6 10/14/6 
f 6/17/7 2/18/7 1/1/7 
f 1/1/7 7/7/7 6/17/7 
f 11/19/8 12/20/8 13/21/8 
f 11/19/8 13/21/8 14/22/8 
f 14/22/8 15/23/8 11/19/8 
f 16/24/9 17/25/9 18/26/9 
f 16/24/9 18/26/9 19/27/9 
f 19/27/9 20/28/9 16/24/9 
f 17/25/3 11/19/3 15/23/3 
f 15/23/3 18/26/3 17/25/3 
f 18/26/4 15/23/4 14/29/4 
f 14/29/4 19/30/4 18/26/4 
f 19/30/5 14/29/5 13/31/5 
f 13/31/5 20/32/5 19/30/5 
f 20/32/6 13/31/6 12/33/6 
f 12/33/6 16/34/6 20/32/6 
f 16/35/7 12/36/7 11/19/7 
f 11/19/7 17/25/7 16/35/7 
f 21/37/10 22/38/10 23/39/10 
f 21/37/10 23/39/10 24/40/10 
f 24/40/10 25/41/10 21/37/10 
f 26/42/11 27/43/11 28/44/11 
f 26/42/11 28/44/11 29/45/11 
f 29/45/11 30/46/11 26/42/11 
f 27/43/3 21/37/3 25/41/3 
f 25/41/3 28/44/3 27/43/3 
f 28/44/12 25/41/12 24/47/12 
f 24/47/12 29/48/12 28/44/12 
f 29/48/13 24/47/13 23/49/13 
f 23/49/13 30/50/13 29/48/13 
f 30/50/6 23/49/6 22/51/6 
f 22/51/6 26/52/6 30/50/6 
f 26/53/14 22/54/14 21/37/14 
f 21/37/14 27/43/14 26/53/14 
f 31/55/15 32/56/15 33/57/15 
f 31/55/15 33/57/15 34/58/15 
f 34/58/15 35/59/15 31/55/15 
f 36/60/16 37/61/16 38/62/16 
f 36/60/16 38/62/16 39/63/16 
f 39/63/16 40/64/16 36/60/16 
f 37/61/3 31/55/3 35/59/3 
f 35/59/3 38/62/3 37/61/3 
f 38/62/12 35/59/12 34/65/12 
f 34/65/12 39/66/12 38/62/12 
f 39/66/13 34/65/13 33/67/13 
f 33/67/13 40/68/13 39/66/13 
f 40/68/6 33/67/6 32/69/6 
f 32/69/6 36/70/6 40/68/6 
f 36/71/14 32/72/14 31/55/14 
f 31/55/14 37/61/14 36/71/14 
f 41/73/17 42/74/17 43/75/17 
f 41/73/17 43/75/17 44/76/17 
f 44/76/17 45/77/17 41/73/17 
f 46/78/18 47/79/18 48/80/18 
f 46/78/18 48/80/18 49/81/18 
f 49/81/18 50/82/18 46/78/18 
f 47/79/3 41/73/3 45/77/3 
f 45/77/3 48/80/3 47/79/3 
f 48/80/19 45/77/19 44/83/19 
f 44/83/19 49/84/19 48/80/19 
f 49/84/20 44/83/20 43/85/20 
f 43/85/20 50/86/20 49/84/20 
f 50/86/6 43/85/6 42/87/6 
f 42/87/6 46/88/6 50/86/6 
f 46/89/21 42/90/21 41/73/21 
f 41/73/21 47/79/21 46/89/21 
f 51/91/22 52/92/22 53/93/22 
f 51/91/22 53/93/22 54/94/22 
f 54/94/22 55/95/22 51/91/22 
f 56/96/23 57/97/23 58/98/23 
f 56/96/23 58/98/23 59/99/23 
f 59/99/23 60/100/23 56/96/23 
f 57/97/3 51/91/3 55/95/3 
f 55/95/3 58/98/3 57/97/3 
f 58/98/24 55/95/24 54/101/24 
f 54/101/24 59/102/24 58/98/24 
f 59/102/25 54/101/25 53/103/25 
f 53/103/25 60/104/25 59/102/25 
f 60/104/6 53/103/6 52/105/6 
f 52/105/6 56/106/6 60/104/6 
f 56/107/26 52/108/26 51/91/26 
f 51/91/26 57/97/26 56/107/26 
